<svg version="1.1" viewBox="0.0 0.0 30.0 768.0" fill="none" stroke="none" stroke-linecap="square" stroke-miterlimit="10" xmlns:xlink="http://www.w3.org/1999/xlink" xmlns="http://www.w3.org/2000/svg"><clipPath id="p.0"><path d="m0 0l1024.0 0l0 768.0l-1024.0 0l0 -768.0z" clip-rule="nonzero"/></clipPath><g clip-path="url(#p.0)"><path fill="#000000" fill-opacity="0.0" d="m0 0l1024.0 0l0 768.0l-1024.0 0z" fill-rule="evenodd"/><path fill="#000000" fill-opacity="0.0" d="m27.61155 23.519686l978.6771 0l0 142.20473l-978.6771 0z" fill-rule="evenodd"/><path fill="#000000" d="m77.283424 54.987183l0 -7.515625l-19.59375 0l0 97.765625l19.59375 0l0 -7.515625l-10.9375 0l0 -82.734375l10.9375 0zm27.806778 74.8125l16.671875 0q5.1875 -0.046875 9.671867 -1.234375q4.484375 -1.1875 8.046875 -3.421875q3.359375 -2.125 6.078125 -5.140625q2.71875 -3.015625 4.5 -6.734375q1.734375 -3.5625 2.640625 -7.8125q0.921875 -4.25 0.921875 -9.0l0 -5.296875q-0.046875 -4.953125 -1.015625 -9.296875q-0.96875 -4.359375 -2.796875 -8.015625q-2.015625 -4.3125 -5.40625 -7.59375q-3.390625 -3.296875 -7.796875 -5.328125q-3.171875 -1.484375 -6.90625 -2.296875q-3.7343674 -0.8125 -7.9374924 -0.859375l-16.671875 0l0 72.03125zm9.296875 -64.515625l7.375 0q3.40625 0.046875 6.2812424 0.765625q2.875 0.71875 5.203125 2.0q3.265625 1.734375 5.515625 4.53125q2.25 2.796875 3.578125 6.265625q1.046875 2.65625 1.5625 5.75q0.515625 3.09375 0.5625 6.46875l0 5.390625q-0.046875 3.3125 -0.546875 6.359375q-0.484375 3.03125 -1.46875 5.65625q-1.140625 3.21875 -3.09375 5.828125q-1.953125 2.59375 -4.625 4.375q-2.53125 1.71875 -5.78125 2.671875q-3.2343674 0.9375 -7.1874924 0.984375l-7.375 0l0 -57.046875zm97.666145 -7.515625l-8.859375 0l-0.140625 48.78125q-0.09375 3.21875 -1.046875 6.1875q-0.9375 2.96875 -2.71875 5.234375q-1.828125 2.328125 -4.5 3.6875q-2.671875 1.359375 -6.1875 1.359375q-3.515625 0 -6.21875 -1.375q-2.6875 -1.390625 -4.46875 -3.671875q-1.828125 -2.265625 -2.796875 -5.234375q-0.953125 -2.96875 -1.015625 -6.1875l-0.1875 -48.78125l-8.71875 0l-0.09375 48.78125q0.046875 5.046875 1.78125 9.484375q1.734375 4.421875 4.796875 7.6875q3.078125 3.3125 7.375 5.1875q4.3125 1.875 9.546875 1.875q5.15625 0 9.453125 -1.890625q4.3125 -1.90625 7.421875 -5.234375q3.125 -3.265625 4.890625 -7.65625q1.78125 -4.40625 1.78125 -9.453125l-0.09375 -48.78125zm62.244293 50.359375l-9.15625 0q-0.4375 3.265625 -1.53125 6.0625q-1.09375 2.796875 -2.921875 4.828125q-1.828125 2.078125 -4.484375 3.21875q-2.6406403 1.125 -6.2500153 1.125q-3.3125 0 -5.796875 -1.0625q-2.46875 -1.0625 -4.296875 -2.9375q-1.828125 -1.828125 -3.015625 -4.25q-1.1875 -2.4375 -1.9375 -5.203125q-0.734375 -2.71875 -1.0625 -5.5625q-0.3125 -2.84375 -0.3125 -5.515625l0 -10.140625q0 -2.671875 0.3125 -5.515625q0.328125 -2.859375 1.0625 -5.578125q0.75 -2.71875 1.953125 -5.140625q1.21875 -2.421875 3.046875 -4.25q1.78125 -1.828125 4.28125 -2.890625q2.5 -1.078125 5.765625 -1.078125q3.609375 0 6.2500153 1.21875q2.65625 1.21875 4.484375 3.34375q1.828125 2.125 2.921875 4.953125q1.09375 2.8125 1.53125 6.078125l9.15625 0q-0.59375 -5.140625 -2.453125 -9.390625q-1.859375 -4.265625 -4.921875 -7.328125q-3.0625 -3.03125 -7.328125 -4.6875q-4.2500153 -1.65625 -9.64064 -1.65625q-4.5 0 -8.109375 1.265625q-3.609375 1.265625 -6.4375 3.484375q-2.875 2.234375 -4.921875 5.28125q-2.046875 3.03125 -3.390625 6.59375q-1.390625 3.5625 -2.0625 7.46875q-0.65625 3.90625 -0.703125 7.921875l0 10.046875q0.046875 4.0 0.703125 7.921875q0.671875 3.90625 2.0625 7.46875q1.34375 3.5625 3.390625 6.578125q2.046875 3.015625 4.921875 5.234375q2.828125 2.234375 6.453125 3.5q3.640625 1.25 8.09375 1.25q5.203125 0 9.42189 -1.65625q4.234375 -1.65625 7.359375 -4.671875q3.0625 -2.96875 4.984375 -7.140625q1.9375 -4.1875 2.578125 -9.1875zm60.806763 0l-9.15625 0q-0.4375 3.265625 -1.53125 6.0625q-1.09375 2.796875 -2.921875 4.828125q-1.828125 2.078125 -4.484375 3.21875q-2.640625 1.125 -6.25 1.125q-3.3125 0 -5.796875 -1.0625q-2.46875 -1.0625 -4.296875 -2.9375q-1.828125 -1.828125 -3.015625 -4.25q-1.1875 -2.4375 -1.9375 -5.203125q-0.734375 -2.71875 -1.0625 -5.5625q-0.3125 -2.84375 -0.3125 -5.515625l0 -10.140625q0 -2.671875 0.3125 -5.515625q0.328125 -2.859375 1.0625 -5.578125q0.75 -2.71875 1.953125 -5.140625q1.21875 -2.421875 3.046875 -4.25q1.78125 -1.828125 4.28125 -2.890625q2.5 -1.078125 5.765625 -1.078125q3.609375 0 6.25 1.21875q2.65625 1.21875 4.484375 3.34375q1.828125 2.125 2.921875 4.953125q1.09375 2.8125 1.53125 6.078125l9.15625 0q-0.59375 -5.140625 -2.453125 -9.390625q-1.859375 -4.265625 -4.921875 -7.328125q-3.0625 -3.03125 -7.328125 -4.6875q-4.25 -1.65625 -9.640625 -1.65625q-4.5 0 -8.109375 1.265625q-3.609375 1.265625 -6.4375 3.484375q-2.875 2.234375 -4.921875 5.28125q-2.046875 3.03125 -3.390625 6.59375q-1.390625 3.5625 -2.0625 7.46875q-0.65625 3.90625 -0.703125 7.921875l0 10.046875q0.046875 4.0 0.703125 7.921875q0.671875 3.90625 2.0625 7.46875q1.34375 3.5625 3.390625 6.578125q2.046875 3.015625 4.921875 5.234375q2.828125 2.234375 6.453125 3.5q3.640625 1.25 8.09375 1.25q5.203125 0 9.421875 -1.65625q4.234375 -1.65625 7.359375 -4.671875q3.0625 -2.96875 4.984375 -7.140625q1.9375 -4.1875 2.578125 -9.1875zm25.572388 -60.65625l0 7.515625l10.984375 0l0 82.734375l-10.984375 0l0 7.515625l19.65625 0l0 -97.765625l-19.65625 0zm131.86353 15.828125l-9.203125 0l0 12.96875l-14.046875 0l0 7.078125l14.046875 0l0 29.09375q0 4.9375 1.3125 8.4375q1.3125 3.484375 3.578125 5.65625q2.28125 2.234375 5.375 3.25q3.09375 1.0 6.65625 1.0q2.125 0 4.28125 -0.203125q2.15625 -0.1875 4.078125 -0.578125q1.9375 -0.34375 3.5625305 -0.859375q1.625 -0.53125 2.765625 -1.21875l-1.28125 -6.484375q-0.84375 0.203125 -2.1562805 0.46875q-1.3125 0.265625 -2.796875 0.515625q-1.53125 0.25 -3.109375 0.421875q-1.578125 0.171875 -3.0625 0.171875q-2.03125 0 -3.84375 -0.484375q-1.796875 -0.5 -3.1875 -1.734375q-1.390625 -1.1875 -2.1875 -3.21875q-0.78125 -2.03125 -0.78125 -5.140625l0 -29.09375l20.390656 0l0 -7.078125l-20.390656 0l0 -12.96875zm62.79117 67.484375q7.8125 0 13.125 -3.140625q5.328125 -3.140625 8.0 -7.1875l-5.59375 -4.359375q-2.53125 3.265625 -6.34375 5.25q-3.796875 1.96875 -8.703125 1.96875q-3.703125 0 -6.78125 -1.375q-3.0625 -1.390625 -5.234375 -3.8125q-2.125 -2.28125 -3.34375 -5.25q-1.21875 -2.96875 -1.5625 -6.875l0 -0.34375l38.25 0l0 -4.109375q0 -5.59375 -1.421875 -10.390625q-1.40625 -4.796875 -4.265625 -8.359375q-2.875 -3.515625 -7.203125 -5.515625q-4.328125 -2.0 -10.109375 -2.0q-4.609375 0 -8.984375 1.875q-4.375 1.875 -7.796875 5.390625q-3.46875 3.5625 -5.546875 8.6875q-2.078125 5.109375 -2.078125 11.59375l0 2.078125q0 5.59375 1.875 10.34375q1.890625 4.75 5.25 8.21875q3.375 3.453125 8.09375 5.390625q4.734375 1.921875 10.375 1.921875zm-1.1875 -47.984375q3.5 0 6.046875 1.28125q2.5625 1.28125 4.234375 3.359375q1.6875 2.078125 2.625 4.9375q0.9375 2.84375 0.9375 5.3125l0 0.4375l-28.796875 0q0.546875 -3.703125 1.90625 -6.546875q1.359375 -2.84375 3.34375 -4.828125q1.984375 -1.921875 4.453125 -2.9375q2.46875 -1.015625 5.25 -1.015625zm73.41614 -7.515625q-5.84375 0 -10.421875 2.546875q-4.5625 2.546875 -7.828125 6.9375l-0.0625 -1.328125l-0.390625 -7.171875l-8.703125 0l0 53.53125l9.203125 0l0 -34.34375q0.890625 -2.46875 2.25 -4.46875q1.359375 -2.0 3.1875 -3.390625q2.03125 -1.578125 4.75 -2.390625q2.71875 -0.828125 6.09375 -0.828125q2.609375 0 5.015625 0.28125q2.40625 0.265625 5.0625 0.859375l1.25 -8.953125q-1.390625 -0.59375 -4.140625 -0.9375q-2.734375 -0.34375 -5.265625 -0.34375zm29.931763 0.984375l-8.21875 0l0 53.53125l8.71875 0l0 -42.59375q0.296875 -0.796875 0.765625 -1.484375q0.46875 -0.703125 1.109375 -1.25q0.84375 -0.6875 2.046875 -1.046875q1.21875 -0.375 2.859375 -0.375q1.484375 0 2.59375 0.375q1.109375 0.359375 1.859375 1.15625q0.78125 0.84375 1.15625 2.125q0.375 1.28125 0.375 2.96875l0 40.125l8.703125 0l0 -40.078125q0 -0.296875 0 -0.515625q0 -0.21875 0 -0.46875q0.15625 -1.234375 0.59375 -2.25q0.453125 -1.015625 1.234375 -1.8125q0.796875 -0.734375 1.984375 -1.171875q1.1875 -0.453125 2.8125 -0.453125q1.546875 0 2.703125 0.390625q1.15625 0.390625 1.953125 1.1875q0.75 0.84375 1.140625 2.125q0.390625 1.28125 0.390625 2.96875l0 40.078125l8.703125 0l0 -39.984375q0 -3.859375 -0.890625 -6.703125q-0.890625 -2.84375 -2.5625 -4.625q-1.53125 -1.578125 -3.765625 -2.390625q-2.21875 -0.8125 -5.0 -0.8125q-2.015625 0.046875 -3.734375 0.546875q-1.703125 0.484375 -3.09375 1.328125q-1.078125 0.734375 -2.03125 1.734375q-0.9375 0.984375 -1.625 2.125q-0.546875 -1.234375 -1.3125 -2.21875q-0.765625 -1.0 -1.703125 -1.6875q-1.28125 -0.890625 -3.0 -1.359375q-1.703125 -0.46875 -3.828125 -0.46875q-3.765625 0.046875 -6.421875 1.625q-2.640625 1.578125 -4.265625 4.40625l-0.25 -5.046875zm58.041138 0l0 7.96875l18.203125 0l0 37.640625l-18.203125 0l0 7.921875l44.828125 0l0 -7.921875l-17.46875 0l0 -45.609375l-27.359375 0zm17.015625 -14.046875q0 2.21875 1.359375 3.703125q1.359375 1.484375 4.140625 1.484375q2.71875 0 4.09375 -1.484375q1.390625 -1.484375 1.390625 -3.703125q0 -1.25 -0.40625 -2.28125q-0.390625 -1.046875 -1.171875 -1.734375q-0.640625 -0.640625 -1.640625 -1.015625q-0.984375 -0.375 -2.265625 -0.375q-1.296875 0 -2.3125 0.375q-1.015625 0.375 -1.65625 1.015625q-0.78125 0.75 -1.15625 1.796875q-0.375 1.03125 -0.375 2.21875zm42.353638 67.578125l9.15625 0l0 -38.390625q0.9375 -1.734375 2.1875 -3.171875q1.265625 -1.4375 2.75 -2.515625q1.84375 -1.25 4.015625 -1.953125q2.171875 -0.71875 4.703125 -0.71875q2.921875 0 5.171875 0.6875q2.25 0.6875 3.828125 2.21875q1.53125 1.546875 2.328125 4.015625q0.796875 2.46875 0.796875 6.03125l0 33.796875l9.140625 0l0 -33.984375q0 -5.34375 -1.3125 -9.234375q-1.296875 -3.890625 -3.734375 -6.40625q-2.421875 -2.515625 -5.859375 -3.703125q-3.4375 -1.1875 -7.640625 -1.1875q-3.125 0.046875 -5.921875 0.921875q-2.78125 0.859375 -5.15625 2.4375q-1.59375 1.03125 -3.0 2.453125q-1.40625 1.40625 -2.59375 3.078125l-0.640625 -7.90625l-8.21875 0l0 53.53125zm95.97864 0l9.546875 0l0 -0.796875q-0.890625 -2.21875 -1.390625 -5.203125q-0.484375 -3.0 -0.484375 -5.671875l0 -24.890625q0 -4.5 -1.640625 -7.859375q-1.625 -3.375 -4.4375 -5.65625q-2.875 -2.21875 -6.78125 -3.328125q-3.90625 -1.109375 -8.46875 -1.109375q-4.984375 0 -8.921875 1.390625q-3.9375 1.375 -6.65625 3.59375q-2.765625 2.28125 -4.234375 5.109375q-1.453125 2.8125 -1.5 5.734375l9.203125 0q0 -1.6875 0.8125 -3.234375q0.8125 -1.5625 2.296875 -2.703125q1.484375 -1.140625 3.640625 -1.828125q2.15625 -0.703125 4.875 -0.703125q2.921875 0 5.265625 0.75q2.34375 0.734375 3.984375 2.078125q1.625 1.375 2.515625 3.3125q0.890625 1.921875 0.890625 4.359375l0 4.203125l-9.984375 0q-5.59375 0 -10.125 1.09375q-4.53125 1.078125 -7.734375 3.25q-3.21875 2.234375 -4.984375 5.546875q-1.75 3.3125 -1.75 7.71875q0 3.359375 1.3125 6.265625q1.3125 2.890625 3.734375 4.96875q2.375 2.125 5.8125 3.359375q3.4375 1.234375 7.6875 1.234375q2.625 0 4.953125 -0.546875q2.328125 -0.53125 4.40625 -1.46875q2.03125 -0.953125 3.734375 -2.1875q1.703125 -1.234375 3.09375 -2.625q0.140625 1.6875 0.46875 3.25q0.328125 1.5625 0.859375 2.59375zm-16.171875 -6.96875q-2.671875 0 -4.703125 -0.6875q-2.03125 -0.703125 -3.359375 -1.9375q-1.34375 -1.1875 -2.015625 -2.875q-0.65625 -1.6875 -0.65625 -3.65625q0 -2.078125 0.765625 -3.703125q0.765625 -1.640625 2.25 -2.828125q2.078125 -1.6875 5.609375 -2.5q3.546875 -0.8125 8.296875 -0.8125l8.5 0l0 10.828125q-0.78125 1.578125 -2.171875 3.046875q-1.390625 1.453125 -3.265625 2.59375q-1.921875 1.140625 -4.25 1.84375q-2.328125 0.6875 -5.0 0.6875zm43.244263 -69.03125l0 7.96875l18.203125 0l0 60.109375l-18.203125 0l0 7.921875l44.828125 0l0 -7.921875l-17.46875 0l0 -68.078125l-27.359375 0z" fill-rule="nonzero"/></g></svg>
